<svg viewBox="0 0 600 400" xmlns="http://www.w3.org/2000/svg">
  <!-- Fondo de cielo -->
  <defs>
    <linearGradient id="sunset" x1="0%" y1="0%" x2="0%" y2="100%">
      <stop offset="0%" style="stop-color:#FFB347;stop-opacity:1" />
      <stop offset="50%" style="stop-color:#FF7F50;stop-opacity:1" />
      <stop offset="100%" style="stop-color:#FF6347;stop-opacity:1" />
    </linearGradient>
    
    <!-- Gradiente para el templo -->
    <linearGradient id="temple" x1="0%" y1="0%" x2="0%" y2="100%">
      <stop offset="0%" style="stop-color:#8B4513;stop-opacity:1" />
      <stop offset="100%" style="stop-color:#A0522D;stop-opacity:1" />
    </linearGradient>
    
    <!-- Gradiente para la selva -->
    <linearGradient id="jungle" x1="0%" y1="0%" x2="0%" y2="100%">
      <stop offset="0%" style="stop-color:#228B22;stop-opacity:1" />
      <stop offset="100%" style="stop-color:#006400;stop-opacity:1" />
    </linearGradient>
    
    <!-- Gradiente para las montañas -->
    <linearGradient id="mountains" x1="0%" y1="0%" x2="0%" y2="100%">
      <stop offset="0%" style="stop-color:#4682B4;stop-opacity:1" />
      <stop offset="100%" style="stop-color:#483D8B;stop-opacity:1" />
    </linearGradient>
  </defs>
  
  <!-- Cielo atardecer -->
  <rect width="600" height="400" fill="url(#sunset)"/>
  
  <!-- Montañas de fondo -->
  <polygon points="0,120 80,80 160,100 240,70 320,90 400,75 480,85 560,70 600,80 600,400 0,400" fill="url(#mountains)" opacity="0.7"/>
  
  <!-- Selva tropical -->
  <polygon points="0,200 50,180 100,190 150,170 200,185 250,175 300,180 350,170 400,175 450,165 500,170 550,160 600,165 600,400 0,400" fill="url(#jungle)"/>
  
  <!-- Árboles tropicales -->
  <ellipse cx="70" cy="180" rx="15" ry="25" fill="#228B22"/>
  <ellipse cx="170" cy="170" rx="20" ry="30" fill="#228B22"/>
  <ellipse cx="270" cy="175" rx="18" ry="28" fill="#228B22"/>
  <ellipse cx="370" cy="170" rx="16" ry="26" fill="#228B22"/>
  <ellipse cx="470" cy="165" rx="22" ry="32" fill="#228B22"/>
  
  <!-- Troncos -->
  <rect x="68" y="180" width="4" height="20" fill="#8B4513"/>
  <rect x="168" y="170" width="4" height="25" fill="#8B4513"/>
  <rect x="268" y="175" width="4" height="23" fill="#8B4513"/>
  <rect x="368" y="170" width="4" height="24" fill="#8B4513"/>
  <rect x="468" y="165" width="4" height="30" fill="#8B4513"/>
  
  <!-- Templo maya principal -->
  <g transform="translate(200, 220)">
    <!-- Base del templo -->
    <rect x="0" y="40" width="200" height="80" fill="url(#temple)"/>
    
    <!-- Escalones -->
    <rect x="10" y="35" width="180" height="8" fill="#654321"/>
    <rect x="20" y="30" width="160" height="8" fill="#654321"/>
    <rect x="30" y="25" width="140" height="8" fill="#654321"/>
    <rect x="40" y="20" width="120" height="8" fill="#654321"/>
    <rect x="50" y="15" width="100" height="8" fill="#654321"/>
    <rect x="60" y="10" width="80" height="8" fill="#654321"/>
    <rect x="70" y="5" width="60" height="8" fill="#654321"/>
    <rect x="80" y="0" width="40" height="8" fill="#654321"/>
    
    <!-- Templo superior -->
    <rect x="80" y="-20" width="40" height="25" fill="url(#temple)"/>
    
    <!-- Entrada del templo -->
    <rect x="90" y="50" width="20" height="30" fill="#2F4F4F"/>
    
    <!-- Decoraciones -->
    <rect x="85" y="45" width="30" height="5" fill="#654321"/>
    <rect x="85" y="85" width="30" height="5" fill="#654321"/>
    
    <!-- Jeroglíficos -->
    <circle cx="50" cy="60" r="3" fill="#654321"/>
    <circle cx="150" cy="60" r="3" fill="#654321"/>
    <rect x="48" y="70" width="4" height="8" fill="#654321"/>
    <rect x="148" y="70" width="4" height="8" fill="#654321"/>
  </g>
  
  <!-- Templo secundario -->
  <g transform="translate(50, 280)">
    <rect x="0" y="20" width="100" height="40" fill="url(#temple)" opacity="0.8"/>
    <rect x="10" y="15" width="80" height="5" fill="#654321"/>
    <rect x="20" y="10" width="60" height="5" fill="#654321"/>
    <rect x="30" y="5" width="40" height="5" fill="#654321"/>
    <rect x="40" y="0" width="20" height="5" fill="#654321"/>
    <rect x="40" y="-10" width="20" height="15" fill="url(#temple)"/>
    <rect x="45" y="30" width="10" height="15" fill="#2F4F4F"/>
  </g>
  
  <!-- Templo terciario -->
  <g transform="translate(450, 290)">
    <rect x="0" y="15" width="80" height="35" fill="url(#temple)" opacity="0.7"/>
    <rect x="10" y="10" width="60" height="5" fill="#654321"/>
    <rect x="20" y="5" width="40" height="5" fill="#654321"/>
    <rect x="30" y="0" width="20" height="5" fill="#654321"/>
    <rect x="30" y="-8" width="20" height="12" fill="url(#temple)"/>
    <rect x="35" y="25" width="10" height="12" fill="#2F4F4F"/>
  </g>
  
  <!-- Loros tropicales -->
  <ellipse cx="120" cy="150" rx="4" ry="2" fill="#FF6347"/>
  <ellipse cx="320" cy="140" rx="4" ry="2" fill="#32CD32"/>
  <ellipse cx="480" cy="145" rx="4" ry="2" fill="#FF6347"/>
  
  <!-- Flores tropicales -->
  <circle cx="130" cy="340" r="5" fill="#FF69B4"/>
  <circle cx="330" cy="350" r="6" fill="#FF1493"/>
  <circle cx="480" cy="340" r="5" fill="#FF69B4"/>
  <circle cx="80" cy="350" r="4" fill="#FF1493"/>
  
  <!-- Niebla matutina -->
  <ellipse cx="300" cy="250" rx="100" ry="20" fill="white" opacity="0.3"/>
  <ellipse cx="150" cy="270" rx="60" ry="15" fill="white" opacity="0.2"/>
  <ellipse cx="450" cy="260" rx="80" ry="18" fill="white" opacity="0.2"/>
  
  <!-- Sol -->
  <circle cx="500" cy="80" r="25" fill="#FFD700" opacity="0.8"/>
  <circle cx="500" cy="80" r="15" fill="#FFA500"/>
</svg>